<svg xmlns="http://www.w3.org/2000/svg" xmlns:svg="http://www.w3.org/2000/svg" xmlns:xlink="http://www.w3.org/1999/xlink" id="Layer_1" x="0" y="0" version="1.1" viewBox="0 0 406.9 341.2" xml:space="preserve" style="enable-background:new 0 0 406.9 341.2"><g><path d="M323.5,461.8c-51.9,0-92.6,15.9-122.1,48.1c-29.5,32.2-44.2,82.5-44.2,150.9V803h170.9h0.1V649.5h-82.5 c0-37.6,6.1-65.6,18.2-83.9c12-18.3,31.9-27.5,59.6-27.5L323.5,461.8L323.5,461.8z M558.1,461.8c-25.9,0-49,3.8-69.3,11.6 c-20.3,7.8-37.7,19.8-52,36.1c-14.3,16.4-25.2,37.2-32.8,62.4c-7.6,25.3-11.4,54.8-11.4,88.9V803h171.6V649.5h-82.4 c0-37.6,6-65.6,18.1-83.9c12-18.3,31.5-27.5,58.3-27.5L558.1,461.8L558.1,461.8z" transform="translate(-157.207,-461.815)"/></g></svg>